<svg width="758" height="449" viewBox="0 0 758 449" fill="none" xmlns="http://www.w3.org/2000/svg">
<g clip-path="url(#clip0_19_2)">
<path d="M757.43 -0.400024H5.36035V422.6H757.43V-0.400024Z" fill="#434444"/>
<path d="M440.04 179.78C369.93 172.83 303.1 206.13 236.34 228.67C213.4 236.42 189.06 243.02 165.19 238.93C127.02 232.39 98.4101 199.93 80.4601 165.62C62.5101 131.31 51.8501 93.32 31.3901 60.45C23.0601 47.06 12.2901 34.28 -0.359863 24.88V449.42H597.16C611.06 392.79 611.62 332.41 586.05 280.73C558.65 225.38 501.52 185.87 440.04 179.78Z" fill="#0C0A09"/>
<path d="M86.9506 506.338C123.999 469.289 123.999 409.222 86.9506 372.173C49.9019 335.124 -10.1659 335.124 -47.2145 372.173C-84.2632 409.222 -84.2632 469.289 -47.2145 506.338C-10.1659 543.387 49.9019 543.387 86.9506 506.338Z" fill="#FACC15"/>
<path d="M822.4 -14.1501C797.16 16.6699 783.18 54.9599 769.93 92.5299C756.68 130.1 743.34 168.51 719.03 200.08C694.73 231.65 657.01 255.75 617.26 253.09C539.4 247.87 488.32 161.97 415.59 139.21C392.18 131.88 364.8 132.82 345.28 147.67C317.97 168.44 314.78 210.66 330.22 241.3C345.66 271.94 375.21 292.89 405.35 309.28C428.5 321.87 452.69 332.54 477.59 341.16C508.97 352.01 542.98 360.47 566.49 383.92C596.29 413.65 590.18 436.92 573.82 458.56H905.6V-48.0601H859.87C845.84 -38.6301 833.13 -27.2501 822.4 -14.1501Z" fill="#747780"/>
<path d="M825.03 184.27C802.54 214.82 768.02 235.63 724.93 246.53C706.75 251.13 687.79 254.21 671.44 263.27C655.09 272.33 641.58 289.34 643.63 307.47C646.15 329.73 670.31 343.62 693.03 347.16C740.82 354.6 794.63 347.1 827.73 308.56C853.5 278.55 863.08 236.45 891.75 209.2C919.51 182.82 961.61 173.98 985.7 144.21C998.39 128.52 1004.65 108.52 1007.75 88.5799C1012.14 60.3399 1010.46 30.3699 997.59 4.84995C984.72 -20.6601 959.32 -40.8401 930.79 -42.4501C855.99 -46.6601 856.54 48.3399 853.89 98.6099C852.11 132.65 841.99 161.23 825.03 184.27Z" fill="#0C0A09"/>
<path d="M43.4598 6.00999C24.2798 -11.62 12.6398 -36.73 8.40983 -66.96C6.61983 -79.72 5.93982 -92.89 0.969822 -104.72C-4.00018 -116.56 -14.6002 -127.05 -27.1302 -127C-42.5102 -126.93 -53.8002 -111.48 -57.9102 -96.23C-66.5502 -64.16 -65.4402 -26.86 -41.5902 -1.40001C-23.0202 18.43 5.00983 28.1 21.4698 49.7C37.4098 70.61 40.3098 100.02 58.8398 118.68C68.5998 128.51 81.7898 134.27 95.1698 137.88C114.12 142.98 134.71 144.06 153.08 137.18C171.46 130.3 187.12 114.46 190.34 95.1C198.78 44.35 133.89 37.65 99.7698 32.1C76.6898 28.34 57.9298 19.3 43.4598 6.00999Z" fill="#747780"/>
<path d="M312.78 -36.22C298.68 -32.15 284.08 -41.42 274.41 -52.46C264.74 -63.5 257.44 -76.89 245.61 -85.58C220.48 -104.02 180.65 -92.33 165.5 -65.09C150.35 -37.84 158.51 -1.31003 180.57 20.72C202.62 42.75 235.82 51.23 266.82 47.96C294.06 45.09 320.77 33.44 339.4 13.37C358.03 -6.70004 367.77 -35.47 362.46 -62.34C359.35 -78.08 342.57 -98.59 334.76 -78.4C328.71 -62.71 334.72 -42.55 312.78 -36.22Z" fill="#FACC15"/>
<g opacity="0.71">
<path opacity="0.71" d="M712.756 383.1C726.456 380.524 735.474 367.33 732.898 353.63C730.322 339.93 717.127 330.912 703.427 333.488C689.728 336.065 680.71 349.259 683.286 362.959C685.862 376.659 699.056 385.676 712.756 383.1Z" fill="#FACC15"/>
</g>
<g opacity="0.65">
<path opacity="0.65" d="M199.8 234.45C201.3 248.31 191.28 260.76 177.42 262.26C163.56 263.76 151.11 253.74 149.61 239.88C148.11 226.02 158.13 213.57 171.99 212.07C185.85 210.57 198.3 220.59 199.8 234.45Z" fill="#FACC15"/>
</g>
<path d="M668.661 176.075C681.068 150.041 670.021 118.878 643.987 106.471C617.953 94.0643 586.79 105.111 574.383 131.145C561.976 157.179 573.023 188.342 599.057 200.749C625.091 213.156 656.254 202.11 668.661 176.075Z" fill="#FACC15"/>
<g opacity="0.72">
<path opacity="0.72" d="M490.236 347.707C510.629 327.314 510.629 294.25 490.236 273.857C469.843 253.464 436.78 253.464 416.387 273.857C395.994 294.25 395.994 327.314 416.387 347.707C436.78 368.1 469.843 368.1 490.236 347.707Z" fill="#FACC15"/>
</g>
<path d="M509.1 88.2C456.76 88.2 414.18 45.62 414.18 -6.72002C414.18 -59.06 456.76 -101.64 509.1 -101.64C561.44 -101.64 604.02 -59.06 604.02 -6.72002C604.01 45.62 561.43 88.2 509.1 88.2ZM509.1 -98.45C458.52 -98.45 417.37 -57.3 417.37 -6.72002C417.37 43.86 458.52 85.01 509.1 85.01C559.68 85.01 600.83 43.86 600.83 -6.72002C600.83 -57.3 559.68 -98.45 509.1 -98.45Z" fill="#FACC15"/>
<path d="M509.1 77.83C462.48 77.83 424.55 39.9 424.55 -6.72002C424.55 -53.34 462.48 -91.27 509.1 -91.27C555.72 -91.27 593.65 -53.34 593.65 -6.72002C593.64 39.9 555.71 77.83 509.1 77.83ZM509.1 -88.08C464.24 -88.08 427.74 -51.58 427.74 -6.72002C427.74 38.14 464.24 74.64 509.1 74.64C553.96 74.64 590.46 38.14 590.46 -6.72002C590.46 -51.58 553.96 -88.08 509.1 -88.08Z" fill="#FACC15"/>
<path d="M509.1 67.46C468.2 67.46 434.92 34.18 434.92 -6.72002C434.92 -47.62 468.2 -80.9 509.1 -80.9C550 -80.9 583.28 -47.62 583.28 -6.72002C583.27 34.18 550 67.46 509.1 67.46ZM509.1 -77.71C469.95 -77.71 438.11 -45.86 438.11 -6.72002C438.11 32.43 469.96 64.27 509.1 64.27C548.24 64.27 580.09 32.42 580.09 -6.72002C580.09 -45.86 548.24 -77.71 509.1 -77.71Z" fill="#FACC15"/>
<path d="M509.1 57.09C473.92 57.09 445.29 28.47 445.29 -6.72003C445.29 -41.9 473.91 -70.53 509.1 -70.53C544.28 -70.53 572.91 -41.91 572.91 -6.72003C572.9 28.47 544.28 57.09 509.1 57.09ZM509.1 -67.34C475.67 -67.34 448.48 -40.14 448.48 -6.72003C448.48 26.71 475.68 53.9 509.1 53.9C542.52 53.9 569.72 26.7 569.72 -6.72003C569.72 -40.14 542.52 -67.34 509.1 -67.34Z" fill="#FACC15"/>
<path d="M509.1 46.72C479.63 46.72 455.66 22.75 455.66 -6.72003C455.66 -36.19 479.63 -60.16 509.1 -60.16C538.57 -60.16 562.54 -36.19 562.54 -6.72003C562.53 22.75 538.56 46.72 509.1 46.72ZM509.1 -56.97C481.39 -56.97 458.85 -34.43 458.85 -6.72003C458.85 20.99 481.39 43.54 509.1 43.54C536.81 43.54 559.35 21 559.35 -6.72003C559.35 -34.43 536.81 -56.97 509.1 -56.97Z" fill="#FACC15"/>
<path d="M509.1 36.35C485.35 36.35 466.03 17.03 466.03 -6.72004C466.03 -30.47 485.35 -49.79 509.1 -49.79C532.85 -49.79 552.17 -30.47 552.17 -6.72004C552.17 17.03 532.84 36.35 509.1 36.35ZM509.1 -46.6C487.11 -46.6 469.21 -28.71 469.21 -6.71004C469.21 15.28 487.1 33.18 509.1 33.18C531.1 33.18 548.99 15.29 548.99 -6.71004C548.98 -28.71 531.09 -46.6 509.1 -46.6Z" fill="#FACC15"/>
</g>
<defs>
<clipPath id="clip0_19_2">
<rect width="758" height="449" fill="white"/>
</clipPath>
</defs>
</svg>
