<svg width="500" height="512" viewBox="0 0 500 512" fill="none" xmlns="http://www.w3.org/2000/svg">
<rect x="6.5" y="18.5" width="487" height="487" rx="29.5" fill="black" stroke="white" stroke-width="13"/>
<rect x="240" y="25" width="20" height="487" fill="white"/>
<rect x="116" y="18" width="20" height="487" fill="white"/>
<rect x="364" y="25" width="20" height="487" fill="white"/>
<mask id="path-5-outside-1_1_10" maskUnits="userSpaceOnUse" x="82" y="59" width="171" height="245" fill="black">
<rect fill="white" x="82" y="59" width="171" height="245"/>
<path d="M95.5128 291V72.8182H148.247V248.173H239.014V291H95.5128Z"/>
</mask>
<path d="M95.5128 291V72.8182H148.247V248.173H239.014V291H95.5128Z" fill="white"/>
<path d="M95.5128 291H82.5128V304H95.5128V291ZM95.5128 72.8182V59.8182H82.5128V72.8182H95.5128ZM148.247 72.8182H161.247V59.8182H148.247V72.8182ZM148.247 248.173H135.247V261.173H148.247V248.173ZM239.014 248.173H252.014V235.173H239.014V248.173ZM239.014 291V304H252.014V291H239.014ZM108.513 291V72.8182H82.5128V291H108.513ZM95.5128 85.8182H148.247V59.8182H95.5128V85.8182ZM135.247 72.8182V248.173H161.247V72.8182H135.247ZM148.247 261.173H239.014V235.173H148.247V261.173ZM226.014 248.173V291H252.014V248.173H226.014ZM239.014 278H95.5128V304H239.014V278Z" fill="black" mask="url(#path-5-outside-1_1_10)"/>
<mask id="path-7-outside-2_1_10" maskUnits="userSpaceOnUse" x="237" y="179" width="231" height="245" fill="black">
<rect fill="white" x="237" y="179" width="231" height="245"/>
<path d="M250.513 411V192.818H303.247V285.077H306.124L378.247 192.818H440.357L363.013 290.19L441.741 411H378.673L324.341 325.24L303.247 351.874V411H250.513Z"/>
</mask>
<path d="M250.513 411V192.818H303.247V285.077H306.124L378.247 192.818H440.357L363.013 290.19L441.741 411H378.673L324.341 325.24L303.247 351.874V411H250.513Z" fill="white"/>
<path d="M250.513 411H237.513V424H250.513V411ZM250.513 192.818V179.818H237.513V192.818H250.513ZM303.247 192.818H316.247V179.818H303.247V192.818ZM303.247 285.077H290.247V298.077H303.247V285.077ZM306.124 285.077V298.077H312.462L316.365 293.083L306.124 285.077ZM378.247 192.818V179.818H371.909L368.005 184.812L378.247 192.818ZM440.357 192.818L450.536 200.904L467.285 179.818H440.357V192.818ZM363.013 290.19L352.833 282.105L347.007 289.44L352.121 297.288L363.013 290.19ZM441.741 411V424H465.73L452.633 403.902L441.741 411ZM378.673 411L367.692 417.957L371.52 424H378.673V411ZM324.341 325.24L335.323 318.283L325.521 302.812L314.15 317.169L324.341 325.24ZM303.247 351.874L293.056 343.802L290.247 347.349V351.874H303.247ZM303.247 411V424H316.247V411H303.247ZM263.513 411V192.818H237.513V411H263.513ZM250.513 205.818H303.247V179.818H250.513V205.818ZM290.247 192.818V285.077H316.247V192.818H290.247ZM303.247 298.077H306.124V272.077H303.247V298.077ZM316.365 293.083L388.489 200.825L368.005 184.812L295.882 277.07L316.365 293.083ZM378.247 205.818H440.357V179.818H378.247V205.818ZM430.177 184.733L352.833 282.105L373.192 298.276L450.536 200.904L430.177 184.733ZM352.121 297.288L430.85 418.098L452.633 403.902L373.904 283.093L352.121 297.288ZM441.741 398H378.673V424H441.741V398ZM389.655 404.043L335.323 318.283L313.359 332.197L367.692 417.957L389.655 404.043ZM314.15 317.169L293.056 343.802L313.438 359.945L334.532 333.311L314.15 317.169ZM290.247 351.874V411H316.247V351.874H290.247ZM303.247 398H250.513V424H303.247V398Z" fill="black" mask="url(#path-7-outside-2_1_10)"/>
</svg>
